<?xml version="1.0" standalone="no"?>
<!DOCTYPE svg PUBLIC "-//W3C//DTD SVG 20010904//EN"
 "http://www.w3.org/TR/2001/REC-SVG-20010904/DTD/svg10.dtd">
<svg version="1.0" xmlns="http://www.w3.org/2000/svg"
 width="1200.000000pt" height="1200.000000pt" viewBox="0 0 1200.000000 1200.000000"
 preserveAspectRatio="xMidYMid meet">
<metadata>
Created by potrace 1.15, written by Peter Selinger 2001-2017
</metadata>
<g transform="translate(0.000000,1200.000000) scale(0.100000,-0.100000)"
fill="#000000" stroke="none">
<path d="M4478 11177 c-20 -7 -51 -26 -69 -42 -35 -33 -93 -150 -129 -260 -12
-38 -26 -78 -31 -87 -5 -10 -9 -28 -9 -41 0 -13 -4 -27 -9 -33 -5 -5 -11 -27
-15 -49 -3 -22 -10 -67 -16 -100 -6 -33 -13 -87 -15 -120 l-4 -60 10 50 c5 28
17 91 25 140 9 50 23 115 31 145 8 30 18 69 23 85 31 118 101 272 144 316 22
23 47 38 68 41 50 8 283 -9 367 -27 41 -8 77 -13 79 -10 2 2 -6 6 -19 9 -13 3
-46 11 -74 17 -27 6 -102 15 -165 19 -63 4 -124 10 -135 13 -11 3 -37 0 -57
-6z"/>
<path d="M4970 11110 c14 -4 63 -20 110 -34 164 -51 315 -119 417 -188 23 -15
44 -28 48 -28 7 0 129 -93 178 -137 l37 -33 268 -2 c147 -1 276 -1 287 0 11 1
54 -3 95 -8 41 -5 120 -14 175 -20 55 -6 123 -15 150 -20 28 -5 82 -14 120
-20 132 -22 562 -132 590 -151 24 -17 91 -19 119 -4 15 8 32 15 37 15 5 0 28
9 52 20 23 11 103 40 177 64 74 25 127 45 116 46 -19 0 -138 -36 -168 -51 -10
-5 -25 -9 -33 -9 -8 0 -23 -4 -33 -9 -18 -9 -63 -28 -97 -41 -11 -5 -37 -15
-58 -24 -41 -19 -78 -11 -222 45 -11 4 -33 10 -50 14 -72 15 -132 29 -240 56
-79 20 -121 29 -210 45 -270 49 -357 56 -728 60 l-338 5 -72 60 c-40 33 -84
68 -99 77 -16 9 -28 20 -28 24 0 4 -4 8 -9 8 -5 0 -48 24 -97 53 -49 29 -114
63 -144 76 -30 13 -72 32 -93 42 -22 11 -45 19 -53 19 -8 0 -22 4 -32 9 -9 5
-37 14 -62 21 -25 7 -55 16 -68 21 -13 5 -33 9 -45 8 -21 -1 -20 -1 3 -9z"/>
<path d="M4490 11104 c-39 -16 -66 -59 -119 -189 -61 -147 -120 -420 -121
-556 0 -62 -8 -71 -80 -98 -72 -28 -378 -181 -468 -235 -51 -31 -95 -56 -97
-56 -6 0 -180 -115 -236 -155 -25 -19 -49 -35 -53 -35 -15 0 -245 -184 -380
-304 -180 -159 -430 -417 -511 -527 -11 -15 -45 -58 -76 -95 -80 -99 -309
-432 -309 -450 0 -3 -10 -20 -22 -36 -75 -106 -232 -425 -328 -668 -159 -402
-263 -842 -300 -1265 -14 -163 -8 -817 8 -961 13 -109 49 -333 62 -389 5 -22
23 -98 40 -170 60 -252 133 -471 258 -771 32 -76 131 -278 161 -328 10 -17 32
-56 48 -86 108 -198 331 -518 483 -694 20 -23 56 -66 82 -96 70 -84 294 -306
406 -404 55 -49 103 -93 105 -100 3 -7 -1 -52 -9 -102 -28 -192 -38 -414 -25
-596 7 -95 16 -193 21 -218 33 -172 32 -170 64 -193 30 -21 39 -22 266 -22
293 0 404 16 720 101 48 12 225 76 267 95 24 10 45 19 48 19 2 0 43 18 89 41
l85 41 68 -21 c145 -44 179 -54 218 -62 22 -4 58 -12 80 -17 331 -80 573 -111
923 -119 l283 -6 70 -58 c131 -110 305 -213 454 -268 33 -13 68 -27 77 -32 10
-5 27 -9 37 -9 11 0 22 -4 25 -9 3 -5 18 -11 33 -14 16 -3 55 -12 88 -20 246
-63 510 -96 571 -71 43 18 54 38 106 204 64 198 93 327 118 516 l13 92 51 22
c144 65 190 86 286 134 125 63 236 125 345 191 85 51 287 185 295 195 3 3 34
27 70 52 36 26 74 56 84 67 11 12 25 21 32 21 7 0 19 8 26 18 7 9 60 57 118
106 194 165 552 547 652 695 10 15 36 51 58 81 70 95 232 342 268 410 20 36
46 83 59 105 28 49 173 343 173 352 0 3 12 33 26 67 32 75 36 86 64 161 12 33
30 80 40 105 9 25 25 72 35 105 9 33 21 69 25 80 10 24 60 215 71 270 4 22 15
74 23 115 59 277 74 398 86 688 10 212 8 404 -5 662 -5 89 -37 339 -54 425
-36 170 -74 335 -109 465 -17 62 -64 204 -77 235 -7 17 -23 59 -35 95 -12 36
-30 83 -40 105 -10 22 -35 81 -56 130 -20 50 -59 135 -86 190 -52 106 -53 107
-106 200 -19 33 -46 80 -60 105 -13 25 -31 52 -38 61 -8 8 -14 19 -14 23 0 7
-147 225 -159 236 -4 3 -20 25 -36 50 -36 54 -221 285 -284 355 -139 154 -380
384 -533 510 -32 26 -58 55 -58 64 0 10 6 40 14 67 48 175 59 267 60 474 1
196 -13 327 -40 381 -22 44 -81 54 -309 54 -115 -1 -232 -6 -275 -14 -122 -20
-269 -52 -324 -68 -142 -43 -266 -87 -365 -127 l-110 -45 -63 20 c-35 11 -72
25 -83 29 -11 5 -40 14 -65 20 -25 6 -58 15 -75 20 -30 10 -201 51 -285 69
-74 16 -269 49 -360 60 -176 22 -255 30 -270 29 -8 -1 -141 0 -296 0 -253 2
-282 4 -300 20 -10 10 -57 47 -104 83 -183 142 -333 216 -625 309 -122 38
-462 81 -505 64z m197 -84 c272 -35 516 -115 728 -241 120 -70 261 -184 347
-279 l63 -69 105 6 c224 13 817 -46 986 -98 17 -5 39 -9 49 -9 10 0 32 -4 49
-10 17 -5 60 -17 96 -26 77 -19 102 -25 195 -53 l70 -21 100 49 c325 160 586
240 929 282 99 12 384 8 418 -6 31 -13 43 -105 43 -340 -1 -173 -4 -238 -19
-305 -29 -138 -61 -245 -97 -327 -27 -62 -24 -75 29 -115 26 -20 56 -45 67
-55 11 -10 52 -45 90 -78 83 -71 265 -251 357 -352 517 -570 905 -1336 1048
-2068 62 -316 81 -493 87 -807 8 -404 -16 -653 -108 -1083 -28 -136 -123 -457
-158 -540 -5 -11 -19 -47 -32 -80 -80 -212 -253 -558 -351 -702 -15 -23 -28
-44 -28 -47 0 -3 -30 -50 -67 -104 -440 -643 -987 -1128 -1673 -1484 -117 -60
-313 -148 -332 -148 -13 0 -17 19 -22 97 -4 54 -14 135 -22 180 -17 89 -16 92
36 150 73 78 191 244 251 350 60 106 149 296 149 316 0 7 4 17 8 23 12 13 58
163 81 264 71 317 78 575 24 880 -108 613 -448 1129 -968 1473 -127 84 -350
198 -425 217 -42 10 -74 22 -111 40 -18 9 -189 54 -264 69 -85 17 -137 23
-228 27 -48 2 -91 5 -96 8 -4 3 -75 6 -157 6 -143 1 -232 12 -394 47 -41 9
-88 18 -105 20 -37 4 -96 23 -112 35 -14 11 -67 28 -108 33 -16 3 -42 14 -57
25 -15 11 -32 20 -38 20 -18 0 -212 103 -312 167 -275 174 -553 459 -709 729
-145 250 -233 490 -286 779 -25 141 -25 576 1 715 23 125 50 235 87 345 38
114 33 104 114 270 88 182 206 360 319 483 l40 43 -25 142 c-20 121 -24 174
-24 357 0 136 5 241 14 285 29 154 81 333 122 422 10 24 19 45 19 48 0 3 7 17
16 30 19 29 58 32 191 15z m-346 -5545 c29 -24 71 -57 93 -72 124 -83 216
-167 216 -195 0 -21 -34 -58 -54 -58 -6 0 -43 26 -82 58 -40 31 -103 79 -140
107 -156 112 -177 138 -148 182 22 35 56 28 115 -22z m-237 -240 c31 -14 91
-41 134 -61 42 -20 106 -50 142 -67 129 -60 175 -101 164 -144 -6 -23 -37 -39
-64 -34 -8 2 -25 12 -39 22 -13 11 -65 39 -115 63 -196 93 -242 115 -263 121
-62 18 -92 75 -57 109 21 21 32 20 98 -9z m2034 -107 c54 -26 132 -99 157
-149 10 -19 19 -36 21 -37 1 -2 31 7 66 19 52 20 82 24 173 24 95 0 117 -4
157 -24 122 -60 233 -263 166 -305 -32 -20 -69 4 -89 59 -66 176 -225 217
-446 113 -68 -32 -82 -24 -128 66 -31 62 -51 87 -87 114 -83 59 -198 54 -333
-13 -82 -42 -109 -44 -131 -10 -15 23 -15 27 -1 49 24 36 177 106 262 119 59
10 165 -3 213 -25z m-2112 -176 c5 -5 54 -19 109 -31 153 -35 288 -72 313 -88
26 -16 29 -54 6 -77 -20 -21 -39 -20 -115 5 -59 19 -103 29 -204 49 -73 14
-160 41 -182 56 -25 16 -31 62 -11 82 14 14 69 16 84 4z m3828 -121 c31 -34
17 -63 -49 -98 -64 -34 -242 -108 -287 -118 -50 -12 -84 25 -67 73 6 15 22 25
54 33 25 6 48 15 51 20 3 5 12 9 20 9 8 0 51 17 97 38 125 58 131 61 148 61 9
1 24 -8 33 -18z m123 -327 c10 -15 10 -24 0 -44 -13 -26 -51 -37 -291 -80
-135 -25 -153 -25 -166 -1 -30 56 2 81 133 103 56 9 140 26 187 36 90 20 116
17 137 -14z m-3176 -174 c225 -22 373 -73 548 -187 101 -66 241 -203 304 -298
47 -69 55 -97 38 -124 -8 -13 -66 -21 -74 -10 -2 2 -25 36 -52 74 -155 221
-362 356 -655 427 -84 20 -373 17 -480 -6 -115 -24 -293 -75 -365 -106 -111
-47 -138 -49 -160 -16 -33 50 11 81 215 149 58 20 137 43 175 52 39 9 81 19
95 22 29 7 230 30 276 32 18 0 78 -4 135 -9z m3257 -22 c21 -21 15 -67 -10
-77 -22 -9 -130 -30 -268 -52 -36 -5 -86 -15 -112 -20 -74 -16 -119 23 -84 75
15 24 28 28 219 57 39 6 88 14 107 19 54 12 135 11 148 -2z m-1038 -489 c80
-14 238 -62 294 -91 168 -85 317 -230 391 -382 32 -65 30 -105 -4 -123 -34
-17 -57 -2 -83 55 -59 128 -191 269 -315 334 -154 82 -315 118 -523 118 -191
-1 -337 -24 -587 -92 -94 -26 -117 -29 -138 -20 -22 10 -26 18 -23 45 4 37 25
50 133 80 168 46 363 81 510 91 78 6 273 -3 345 -15z"/>
<path d="M4292 8735 c-13 -27 -10 -38 21 -105 78 -167 255 -328 447 -406 233
-95 548 -111 865 -43 200 42 333 83 353 107 19 25 14 50 -13 68 -21 13 -32 14
-63 6 -228 -65 -272 -75 -421 -98 -121 -18 -372 -18 -476 0 -281 50 -500 207
-609 439 -25 52 -30 57 -60 57 -25 0 -35 -6 -44 -25z"/>
<path d="M6321 8244 c-10 -24 -8 -33 21 -81 98 -163 286 -328 469 -411 341
-156 727 -147 1178 25 99 38 131 61 131 92 0 23 -25 51 -45 51 -8 0 -49 -14
-92 -31 -95 -38 -207 -74 -288 -93 -33 -8 -85 -20 -115 -28 -76 -17 -417 -17
-490 0 -290 71 -504 217 -658 449 -30 46 -39 53 -67 53 -25 0 -34 -6 -44 -26z"/>
<path d="M4379 7825 c-3 -2 -97 -20 -209 -39 -214 -36 -235 -44 -228 -91 5
-33 49 -47 115 -36 32 6 101 17 153 26 219 36 230 40 230 86 0 32 -44 72 -61
54z"/>
<path d="M4355 7604 c-114 -20 -266 -54 -292 -64 -30 -12 -38 -46 -19 -75 20
-31 31 -31 159 -1 56 13 136 29 177 36 102 15 120 25 120 66 0 23 -6 37 -19
44 -23 12 -23 12 -126 -6z"/>
<path d="M4480 7360 c-41 -13 -120 -46 -212 -89 -48 -23 -91 -41 -94 -41 -11
0 -33 -34 -34 -51 0 -22 32 -49 59 -49 13 0 60 18 104 39 45 21 123 54 172 73
84 32 90 36 93 64 4 45 -37 70 -88 54z"/>
<path d="M5129 7309 c-16 -16 -19 -27 -13 -52 19 -91 102 -200 178 -235 96
-46 220 -46 343 -3 28 10 55 16 60 12 4 -3 21 -26 37 -51 39 -59 87 -103 144
-131 39 -19 63 -23 142 -23 104 -1 139 8 247 60 77 37 98 61 89 100 -11 40
-47 41 -129 0 -67 -33 -170 -66 -207 -66 -9 0 -39 7 -67 15 -63 19 -116 72
-158 157 -16 34 -37 66 -46 72 -12 6 -42 -2 -110 -30 -82 -34 -104 -39 -174
-39 -126 0 -183 40 -239 167 -32 71 -59 85 -97 47z"/>
<path d="M7550 7216 c-21 -26 -8 -60 31 -79 20 -10 90 -31 155 -47 66 -16 148
-36 184 -46 36 -9 83 -19 106 -21 35 -4 41 -2 51 20 28 61 -22 88 -252 137
-33 7 -88 21 -122 31 -74 23 -136 24 -153 5z"/>
<path d="M7488 7039 c-24 -13 -23 -50 2 -82 18 -23 142 -89 305 -163 148 -66
167 -74 184 -74 29 0 54 35 47 65 -7 26 -10 27 -161 95 -143 64 -244 114 -285
140 -50 32 -65 35 -92 19z"/>
<path d="M7386 6807 c-12 -9 -17 -23 -14 -42 4 -37 39 -67 359 -304 27 -20 69
9 69 47 0 35 -20 54 -175 167 -66 49 -135 101 -153 117 -36 31 -59 35 -86 15z"/>
<path d="M8475 10711 c-3 -7 -43 -11 -95 -11 -49 0 -92 -4 -95 -10 -3 -5 -22
-10 -42 -10 -20 0 -50 -4 -67 -9 -17 -5 -56 -15 -86 -21 -71 -15 -122 -31
-117 -36 2 -3 31 3 63 11 181 49 336 68 559 68 235 1 282 -7 332 -56 43 -40
55 -83 77 -272 1 -16 4 7 5 52 0 45 -3 85 -9 88 -5 3 -10 23 -10 44 0 29 -9
47 -36 80 -21 23 -49 48 -63 54 -56 23 -404 47 -416 28z"/>
<path d="M4140 10330 c-8 -5 -60 -30 -115 -55 -55 -25 -127 -60 -160 -77 -33
-17 -77 -39 -98 -50 -21 -10 -63 -35 -92 -54 -30 -19 -57 -34 -60 -34 -3 0
-32 -17 -63 -38 -31 -22 -61 -41 -67 -43 -40 -16 -300 -204 -466 -338 -160
-128 -569 -539 -665 -668 -16 -21 -54 -70 -86 -109 -59 -74 -244 -339 -278
-399 -11 -19 -30 -52 -41 -72 -12 -21 -29 -49 -39 -63 -34 -48 -204 -393 -252
-510 -6 -14 -14 -33 -19 -42 -5 -10 -9 -24 -9 -31 0 -7 -9 -32 -20 -55 -11
-22 -20 -48 -20 -56 0 -8 -4 -18 -10 -21 -5 -3 -10 -14 -10 -23 0 -30 16 3 83
173 184 468 482 949 826 1335 113 126 360 370 481 475 241 208 527 405 810
558 92 49 303 153 340 167 45 17 80 40 60 39 -8 0 -22 -4 -30 -9z"/>
<path d="M8998 10005 c-4 -44 -17 -120 -28 -170 -37 -161 -37 -172 -4 -197
137 -107 511 -474 599 -589 11 -14 39 -47 62 -75 214 -251 410 -548 566 -859
33 -66 62 -114 64 -108 3 7 -5 26 -16 42 -12 16 -21 32 -21 35 0 7 -63 140
-70 146 -3 3 -18 30 -34 60 -16 30 -37 67 -48 82 -10 14 -18 31 -18 37 0 6 -4
11 -10 11 -5 0 -10 7 -10 15 0 8 -3 15 -8 15 -4 0 -14 15 -21 33 -8 17 -44 74
-80 125 -36 52 -84 120 -106 151 -22 32 -60 82 -85 112 -25 29 -52 62 -60 73
-8 10 -33 40 -55 65 -22 26 -64 76 -94 111 -76 90 -382 391 -485 475 -67 55
-85 76 -85 97 -1 15 4 30 9 33 6 3 10 24 10 45 0 21 5 42 10 45 6 3 10 25 10
49 0 23 5 47 10 52 6 6 10 44 8 90 l-3 79 -7 -80z"/>
<path d="M10600 6959 c1 -8 7 -50 16 -94 26 -139 51 -330 58 -445 29 -466 10
-885 -55 -1248 -11 -63 -18 -116 -16 -119 9 -8 14 14 48 222 36 215 52 554 43
930 -3 160 -9 299 -11 310 -3 11 -9 49 -13 85 -5 36 -13 97 -18 135 -20 135
-53 280 -52 224z"/>
<path d="M1387 6940 c-26 -121 -44 -234 -59 -375 -14 -124 -21 -1011 -9 -1034
6 -9 11 -54 12 -100 1 -45 6 -84 10 -87 5 -3 9 -21 9 -40 0 -37 18 -136 55
-308 3 -15 8 -26 11 -24 2 3 -6 61 -20 129 -23 117 -42 247 -66 455 -13 117
-13 780 0 898 20 172 41 331 56 409 9 43 13 83 11 90 -3 7 -7 1 -10 -13z"/>
<path d="M1590 4377 c0 -17 4 -26 28 -74 7 -13 12 -30 12 -38 0 -8 4 -23 9
-33 12 -23 45 -97 65 -147 10 -22 22 -49 28 -60 15 -27 20 -37 62 -125 20 -41
47 -93 60 -115 12 -22 34 -61 48 -86 46 -81 53 -94 58 -99 3 -3 11 -15 18 -27
6 -13 18 -33 25 -45 6 -13 15 -25 18 -28 3 -3 27 -39 54 -80 26 -41 51 -77 54
-80 4 -3 38 -50 75 -104 38 -55 83 -116 101 -135 19 -20 44 -49 56 -66 101
-131 453 -492 567 -583 29 -23 42 -41 45 -65 l4 -32 1 36 c2 32 -4 40 -64 89
-83 67 -325 310 -429 430 -44 51 -85 97 -90 104 -44 49 -149 182 -183 231 -23
33 -66 94 -95 135 -134 191 -287 461 -385 680 -19 41 -38 84 -43 95 -5 11 -29
70 -54 130 -24 61 -44 102 -45 92z"/>
<path d="M10371 4293 c-8 -21 -27 -66 -42 -101 -16 -34 -29 -66 -29 -71 0 -12
-170 -348 -226 -446 -62 -109 -258 -402 -336 -500 -285 -362 -590 -665 -917
-913 -109 -83 -354 -252 -366 -252 -2 0 -30 -16 -61 -36 -104 -67 -370 -204
-551 -284 -57 -25 -56 -22 -73 -148 -12 -87 -36 -206 -57 -282 -8 -30 -18 -68
-23 -85 -4 -16 -25 -82 -45 -145 -30 -89 -47 -123 -76 -155 l-38 -40 -143 1
c-81 1 -180 8 -228 17 -156 29 -156 29 -140 19 29 -18 231 -49 378 -58 89 -6
132 6 180 49 25 23 52 72 52 94 0 7 4 21 10 31 22 41 100 305 100 341 0 12 5
21 10 21 6 0 10 22 10 49 0 28 5 53 10 56 6 3 10 33 10 65 0 32 5 62 10 65 6
3 10 21 10 38 1 30 5 34 83 71 211 99 339 164 421 213 49 29 91 53 93 53 2 0
24 14 48 30 24 17 46 30 50 30 7 0 298 199 305 209 3 4 21 18 40 31 19 13 37
27 40 30 3 3 21 17 40 31 19 15 46 37 60 49 14 12 50 43 80 68 30 25 145 136
256 246 195 195 306 319 409 455 27 36 53 67 57 69 4 2 15 19 24 38 9 19 20
34 25 34 5 0 9 6 9 14 0 8 4 16 8 18 11 4 142 197 142 209 0 5 5 9 10 9 6 0
10 5 10 11 0 6 14 30 30 54 17 24 30 46 30 48 0 3 19 38 43 79 38 64 183 355
208 416 5 12 14 33 19 47 6 14 15 36 20 50 6 14 15 36 21 49 6 13 10 29 7 36
-2 6 -10 -6 -17 -27z"/>
<path d="M5131 1386 c5 -4 188 -36 244 -42 22 -2 74 -8 115 -14 103 -13 585
-34 599 -26 11 7 40 -5 63 -27 16 -15 116 -95 151 -120 39 -29 81 -51 217
-118 69 -34 133 -65 142 -70 10 -5 27 -9 37 -9 11 0 23 -4 26 -10 3 -5 17 -10
30 -10 13 0 27 -4 30 -10 3 -5 19 -10 35 -10 16 0 32 -4 35 -10 3 -5 18 -10
33 -9 16 0 -17 15 -78 35 -228 75 -436 175 -536 258 -11 8 -50 40 -87 71 l-69
55 -116 0 c-232 1 -510 20 -677 44 -169 26 -202 29 -194 22z"/>
</g>
</svg>
